<?xml version="1.0" standalone="no"?>
<!DOCTYPE svg PUBLIC "-//W3C//DTD SVG 20010904//EN"
 "http://www.w3.org/TR/2001/REC-SVG-20010904/DTD/svg10.dtd">
<svg version="1.0" xmlns="http://www.w3.org/2000/svg"
 width="404.000000pt" height="318.000000pt" viewBox="0 0 404.000000 318.000000"
 preserveAspectRatio="xMidYMid meet">

<g transform="translate(0.000000,318.000000) scale(0.100000,-0.100000)"
fill="#000000" stroke="none">
<path d="M1390 3103 c-77 -10 -268 -56 -349 -85 -492 -174 -869 -607 -981
-1130 -27 -122 -36 -351 -21 -485 42 -361 187 -659 446 -919 415 -417 1006
-554 1580 -368 335 109 639 358 835 684 27 46 50 87 50 92 0 4 -10 8 -23 8
-17 0 -28 -10 -41 -37 -27 -57 -113 -181 -182 -263 -123 -146 -276 -266 -455
-358 -586 -299 -1305 -181 -1754 289 -210 219 -338 465 -397 764 -32 157 -31
425 0 572 128 595 579 1045 1175 1175 137 30 436 32 567 4 320 -69 560 -195
776 -410 120 -120 162 -173 243 -308 37 -62 58 -88 72 -88 25 0 25 3 -17 79
-156 283 -441 543 -732 666 -197 83 -358 116 -587 120 -93 2 -186 1 -205 -2z"/>
<path d="M2351 2095 c-164 -46 -277 -175 -316 -360 -19 -90 -19 -270 0 -360
49 -228 205 -342 459 -333 134 4 201 34 306 138 l74 73 -28 22 -29 23 -51 -42
c-102 -83 -236 -115 -347 -83 -129 38 -196 140 -207 315 l-5 82 337 0 336 0 0
93 c0 209 -85 359 -236 417 -77 29 -216 36 -293 15z m240 -120 c59 -41 89
-104 101 -210 6 -47 8 -92 4 -100 -5 -13 -41 -15 -246 -15 l-240 0 0 38 c0 90
53 226 105 270 50 42 84 52 162 49 61 -2 78 -7 114 -32z"/>
<path d="M1000 1914 l0 -175 52 3 52 3 18 100 c10 55 20 110 23 123 l5 22 226
0 c139 0 224 -4 222 -10 -1 -5 -35 -51 -74 -102 -570 -742 -554 -719 -554
-770 l0 -48 425 0 425 0 0 181 0 180 -52 -3 -53 -3 -17 -124 c-10 -68 -20
-126 -21 -128 -2 -2 -114 -2 -249 -1 l-245 3 313 408 314 408 0 55 0 54 -405
0 -405 0 0 -176z"/>
<path d="M2980 2052 c0 -37 1 -39 53 -55 51 -17 56 -22 207 -218 85 -111 158
-208 163 -215 5 -8 -48 -78 -157 -206 -151 -177 -168 -195 -215 -212 -48 -17
-51 -20 -51 -52 l0 -34 175 0 175 0 0 34 c0 33 -3 35 -52 52 -29 9 -55 18 -57
20 -2 2 50 76 117 164 l120 161 35 -43 c96 -120 218 -280 215 -282 -2 -2 -27
-11 -55 -20 -50 -17 -53 -19 -53 -52 l0 -34 210 0 210 0 0 34 c0 33 -3 35 -55
53 -53 18 -57 21 -224 238 -142 183 -168 222 -158 235 7 8 77 93 156 188 138
164 147 173 198 189 52 16 53 17 53 55 l0 38 -175 0 -175 0 0 -39 c0 -37 1
-39 48 -51 26 -7 50 -16 54 -19 6 -5 -173 -262 -212 -304 -4 -5 -61 60 -125
144 -111 143 -117 153 -99 166 10 8 29 16 42 20 18 4 22 12 22 44 l0 39 -195
0 -195 0 0 -38z"/>
</g>
</svg>
